# xmcd CD database file
#
# Track frame offsets:
#	150
#	11606
#	33882
#	45555
#	62900
#	83238
#	98360
#	116082
#	130160
#
# Disc length: 1912 seconds
#
# Revision: 1
# Processed by: cddbd v1.5.2PL0 Copyright (c) Steve Scherf et al.
# Submitted via: CDex 1.51
#
DISCID=68077609
DTITLE=Various Artist - ZM-SC-001
DYEAR=1900
DGENRE=Blues
TTITLE0=Madness - One Step Beyond
TTITLE1=James Brown - Living In America
TTITLE2=James Brown - Papa's Got A brand New Bag (part 1)
TTITLE3=Rose Royce - Car Wash
TTITLE4=No Doubt - Don't Speak
TTITLE5=Frank Sinatra - That's Life
TTITLE6=Frank Sinatra - I've Got You Under My Skin
TTITLE7=Martha Reeves and The Vandellas - Jimmy Mack
TTITLE8=Martha Reeves and The Vandellas - Dancing In The Street
EXTD=
EXTT0=
EXTT1=
EXTT2=
EXTT3=
EXTT4=
EXTT5=
EXTT6=
EXTT7=
EXTT8=
PLAYORDER=
